<?xml version="1.0" encoding="UTF-8" standalone="no"?>
<!DOCTYPE svg PUBLIC "-//W3C//DTD SVG 20010904//EN"
              "http://www.w3.org/TR/2001/REC-SVG-20010904/DTD/svg10.dtd">

<svg xmlns="http://www.w3.org/2000/svg"
     width="15.7222in" height="15.7222in"
     viewBox="0 0 1132 1132">
  <path id="cloudpods"
        fill="currentColor"
        d="M 1024.00,65.50
           C 774.50,36.00 534.00,142.00 395.00,252.00
             238.00,368.00 103.50,553.00 61.50,716.00
             183.50,730.50 352.50,692.50 483.00,633.00
             490.43,629.31 505.50,630.00 495.00,652.00
             456.50,756.50 432.00,958.00 463.00,1078.50
             471.00,1092.00 479.50,1104.50 513.00,1089.50
             684.00,1028.50 864.03,820.26 956.50,628.00
             1048.50,457.00 1081.50,219.50 1057.50,90.50
             1054.50,72.00 1047.50,68.50 1024.00,65.50 Z
           M 1059.00,57.00M 589.00,580.50
           C 704.50,518.50 895.40,369.25 995.50,201.00
             1008.00,183.50 1026.00,193.00 1023.50,210.50
             1020.50,469.50 872.50,714.00 817.50,779.50
             712.50,924.50 587.00,1018.50 518.00,1047.50
             506.50,1056.50 498.50,1055.00 497.50,1038.50
             483.50,874.00 511.00,723.50 549.50,628.00
             558.50,612.00 554.00,599.00 589.00,580.50 Z
           M 592.00,724.00
           C 603.50,640.50 719.50,651.50 721.50,721.50
             766.50,725.50 784.00,793.50 728.00,811.00
             728.00,811.00 586.00,812.00 586.00,812.00
             544.00,805.50 531.50,732.00 592.00,724.00 Z
           M 668.50,345.50M 671.50,237.50
           C 683.00,154.00 796.00,169.00 799.00,234.00
             844.00,238.00 862.00,306.50 806.00,324.00
             806.00,324.00 665.50,325.50 665.50,325.50
             623.50,319.00 611.00,245.50 671.50,237.50 Z
           M 668.50,345.50M 473.00,364.50
           C 484.50,281.00 597.50,296.00 600.50,361.00
             645.50,365.00 663.50,433.50 607.50,451.00
             607.50,451.00 467.00,452.50 467.00,452.50
             425.00,446.00 412.50,372.50 473.00,364.50 Z
           M 265.50,500.00
           C 277.00,416.50 390.00,431.50 393.00,496.50
             438.00,500.50 456.00,569.00 400.00,586.50
             400.00,586.50 259.50,588.00 259.50,588.00
             217.50,581.50 205.00,508.00 265.50,500.00 Z
           M 668.50,345.50" />
</svg>
