<?xml version="1.0" encoding="UTF-8" standalone="no"?>
<!DOCTYPE svg PUBLIC "-//W3C//DTD SVG 20010904//EN"
              "http://www.w3.org/TR/2001/REC-SVG-20010904/DTD/svg10.dtd">

<svg xmlns="http://www.w3.org/2000/svg"
     width="20.8333in" height="20.8333in"
     viewBox="0 0 1500 1500">
  <path id="cloudpods_circle"
        fill="white"
        d="M 708.00,938.50
           C 641.50,949.00 662.50,1025.00 702.50,1028.00
             702.50,1028.00 835.50,1028.00 835.50,1028.00
             878.00,1029.50 903.00,954.50 840.50,936.00
             822.50,851.00 712.00,871.00 708.00,938.50 Z
           M 1140.00,281.50
           C 890.50,252.00 650.00,358.00 511.00,468.00
             354.00,584.00 219.50,769.00 177.50,932.00
             299.50,946.50 468.50,908.50 599.00,849.00
             606.43,845.31 621.50,846.00 611.00,868.00
             572.50,972.50 548.00,1174.00 579.00,1294.50
             587.00,1308.00 595.50,1320.50 629.00,1305.50
             800.00,1244.50 980.03,1036.26 1072.50,844.00
             1164.50,673.00 1197.50,435.50 1173.50,306.50
             1170.50,288.00 1163.50,284.50 1140.00,281.50 Z
           M 705.00,796.50
           C 820.50,734.50 1011.40,585.25 1111.50,417.00
             1124.00,399.50 1142.00,409.00 1139.50,426.50
             1136.50,685.50 988.50,930.00 933.50,995.50
             828.50,1140.50 703.00,1234.50 634.00,1263.50
             622.50,1272.50 614.50,1271.00 613.50,1254.50
             599.50,1090.00 627.00,939.50 665.50,844.00
             674.50,828.00 670.00,815.00 705.00,796.50 Z
           M 787.50,453.50
           C 799.00,370.00 912.00,385.00 915.00,450.00
             960.00,454.00 978.00,522.50 922.00,540.00
             922.00,540.00 781.50,541.50 781.50,541.50
             739.50,535.00 727.00,461.50 787.50,453.50 Z
           M 589.00,580.50
           C 600.50,497.00 713.50,512.00 716.50,577.00
             761.50,581.00 779.50,649.50 723.50,667.00
             723.50,667.00 583.00,668.50 583.00,668.50
             541.00,662.00 528.50,588.50 589.00,580.50 Z
           M 381.50,716.00
           C 393.00,632.50 506.00,647.50 509.00,712.50
             554.00,716.50 572.00,785.00 516.00,802.50
             516.00,802.50 375.50,804.00 375.50,804.00
             333.50,797.50 321.00,724.00 381.50,716.00 Z
           M 180.50,366.50
           C 370.00,70.50 824.00,-81.50 1189.50,213.50
             1456.00,427.50 1522.50,856.50 1293.00,1151.00
             1096.00,1407.00 695.50,1523.00 360.50,1293.00
             20.50,1040.50 6.50,628.50 180.50,366.50 Z" />
</svg>
