<svg t="1701671354530" class="icon" viewBox="0 0 1484 1024" version="1.1" xmlns="http://www.w3.org/2000/svg" p-id="49025" data-spm-anchor-id="a313x.search_index.0.i1.af3c3a811oNmsH" width="200" height="200">
<path d="M1196.555564 379.714994C1153.414262 164.483377 968.264316 0.006233 740.180835 0.006233a449.919116 449.919116 0 0 0-406.985581 253.20843C141.812303 276.78136-1.502303 440.086105 0.011427 632.908583c0 208.835367 166.584493 379.530675 370.092124 379.530676h801.683236c172.624572 0 308.340848-139.277993 308.340848-316.369553 0.178086-164.477144-129.290343-303.769977-283.572071-316.369552v0.01484zM833.601716 564.390044v183.562013c0 4.897361-1.929264 9.572116-5.342577 13.02995-3.413313 3.457834-8.043545 5.387098-12.866704 5.357416H657.86064a18.001514 18.001514 0 0 1-12.866704-5.342576 18.550612 18.550612 0 0 1-5.342576-13.05963V564.390044h-102.443898a18.046035 18.046035 0 0 1-16.769753-11.160048c-2.834533-6.811785-1.365325-14.692084 3.739803-19.990139l199.411656-207.603606a17.956992 17.956992 0 0 1 26.059899 0l199.411656 207.618446c5.075447 5.283214 6.529815 13.163514 3.680441 19.960459a18.075716 18.075716 0 0 1-16.710391 11.174888h-102.443898z" fill="currentColor" p-id="49026" data-spm-anchor-id="a313x.search_index.0.i2.af3c3a811oNmsH" class=""></path>
</svg>
