<svg t="1701671935391" class="icon" viewBox="0 0 1024 1024" version="1.1" xmlns="http://www.w3.org/2000/svg" p-id="70500" width="200" height="200"><path d="M132.416 298.432A32 32 0 0 0 128 314.688v394.56a32 32 0 0 0 16.32 27.904l352 197.984a32 32 0 0 0 15.68 4.128h0.032l3.776-427.296-383.36-213.536z" fill="#383838" opacity=".2" p-id="70501"></path><path d="M480.64 60.896a64 64 0 0 1 62.72 0l352 198.016A64 64 0 0 1 928 314.688v394.56a64 64 0 0 1-32.64 55.776l-352 198.016a64 64 0 0 1-62.72 0l-352-198.016A64 64 0 0 1 96 709.248V314.688a64 64 0 0 1 32.64-55.776l352-198.016z m63.84 828.096L864 709.248V350.944l-316.352 179.744-3.168 358.304z m-60.864-358.304l-3.136 358.848L160 709.248V350.432l323.648 180.256zM512 116.672L193.504 295.84l322.144 179.424 315.328-179.168L512 116.672z" fill="#2c2c2c" p-id="70502" data-spm-anchor-id="a313x.search_index.0.i17.af3c3a811oNmsH" class=""></path></svg>
