<svg t="1701672758225" class="icon" viewBox="0 0 1303 1024" version="1.1" xmlns="http://www.w3.org/2000/svg" p-id="96059" width="200" height="200"><path d="M1018.112669 694.867947c22.43236 0 40.676105 16.382138 40.676105 36.58057 0 20.198432-18.243745 36.58057-40.769185 36.580571h-325.781162C669.806067 768.029088 651.562322 751.646949 651.562322 731.448517c0-20.198432 18.243745-36.58057 40.676105-36.58057h325.781162zM256.157073 279.078105a43.189274 43.189274 0 0 1 28.854903-10.797319c10.797318 0 21.129235 3.909374 28.854903 10.797319l230.280741 206.824497c15.823656 14.241291 15.823656 37.418293 0 51.659584L313.866879 744.479764a44.026997 44.026997 0 0 1-39.372981 9.494194 38.907579 38.907579 0 0 1-28.854902-25.876333 34.160482 34.160482 0 0 1 10.611157-35.370526l201.518919-180.948165L256.250153 330.551528a33.974321 33.974321 0 0 1 0-51.659584z" fill="#2c2c2c" p-id="96060" data-spm-anchor-id="a313x.search_index.0.i49.af3c3a811oNmsH" class="selected"></path><path d="M1182.306374 1023.813839H120.818271a123.42452 123.42452 0 0 1-83.120737-26.434814A99.130553 99.130553 0 0 1 0 925.986411V98.12994C1.489285 70.857403 15.079014 45.074151 37.697534 26.737325 60.502216 8.49358 90.287922-1.186774 120.818271 0.209431h1061.488103c30.530349-1.396205 60.502216 8.191069 83.120737 26.527894 22.618521 18.429906 36.208249 44.120077 37.697534 71.392615v829.718077c-4.281695 56.22052-57.989047 98.944393-120.818271 95.965822zM120.818271 57.639995C93.173412 55.219907 68.414044 72.81209 64.690831 97.385297v830.36964c3.723213 24.666288 28.482582 42.258471 56.12744 40.024543h1061.488103c27.644859 2.233928 52.404227-15.358255 56.12744-40.024543V98.12994c-3.443972-24.852449-28.296421-42.816953-56.12744-40.583025H120.818271z" fill="#2c2c2c" p-id="96061" data-spm-anchor-id="a313x.search_index.0.i50.af3c3a811oNmsH" class="selected"></path></svg>
