<svg t="1701672566238" class="icon" viewBox="0 0 1120 1024" version="1.1" xmlns="http://www.w3.org/2000/svg" p-id="88658" width="200" height="200"><path d="M294.694818 228.852207c0 126.403071 102.449136 228.852207 228.852207 228.852208s228.852207-102.449136 228.852207-228.852208S649.950096 0 523.547025 0 294.694818 102.449136 294.694818 228.852207zM584.476008 786.057582c0-100.115163 38.080614-190.403071 99.009597-258.702496-51.838772-17.074856-106.134357-25.796545-160.798465-25.919385C234.011516 501.31286 0 735.324376 0 1024h666.779271c-53.190019-67.930902-82.180422-151.708253-82.303263-237.942418z" fill="#2c2c2c" p-id="88659" data-spm-anchor-id="a313x.search_index.0.i42.af3c3a811oNmsH" class="selected"></path><path d="M1119.93858 828.191939l0.245681-87.216891s-57.489443-11.424184-58.472169-15.232246c-1.105566-4.176583-2.211132-8.476008-3.56238-12.52975 6.756238-12.52975 39.18618-39.923225 39.186181-39.923225l-64.982726-86.479846s-42.011516 34.641075-52.575816 39.677543c-5.036468-1.965451-10.195777-3.685221-15.355086-5.159309-5.650672-1.474088-21.25144-56.87524-21.25144-56.87524l-87.339731-0.737044s-9.458733 53.681382-23.585413 57.366603c-4.667946 1.474088-9.458733 3.193858-14.126679 5.40499-10.441459-5.159309-52.575816-40.291747-52.575816-40.291747l-64.982725 87.953935s32.552783 32.798464 34.763915 43.731286c-1.351248 3.439539-2.702495 7.001919-3.808061 10.5643-17.68906 5.036468-35.6238 9.213052-53.681382 12.775431l0.122841 87.216891s46.1881 9.581574 55.032629 17.320537c1.84261 5.036468 3.930902 9.950096 6.142035 14.740883-10.68714 13.389635-39.18618 35.50096-39.186181 35.50096l66.948177 87.216891s52.575816-34.026871 61.297505-35.992323c4.299424 1.84261 8.598848 3.56238 13.143954 5.159309 7.984645 2.702495 13.512476 53.558541 13.512476 53.558541l87.21689 0.245682s2.948177-49.873321 9.335893-51.838772c6.264875-1.965451 12.52975-4.299424 18.548944-6.879078 7.370441 2.825336 41.765835 37.220729 41.765835 37.220729L1098.195777 896.737044s-31.93858-22.111324-40.90595-34.026871c2.456814-4.913628 4.667946-10.072937 6.633398-15.232246 2.825336-8.230326 56.015355-19.285988 56.015355-19.285988M897.84261 894.28023c-60.806142 0-110.1881-49.259117-110.188099-110.188099 0-60.806142 49.259117-110.1881 110.188099-110.1881 60.806142 0 110.1881 49.381958 110.1881 110.1881 0 60.928983-49.259117 110.1881-110.1881 110.188099z" fill="#2c2c2c" p-id="88660" data-spm-anchor-id="a313x.search_index.0.i41.af3c3a811oNmsH" class="selected"></path></svg>
