<svg t="1701671658513" class="icon" viewBox="0 0 1024 1024" version="1.1" xmlns="http://www.w3.org/2000/svg" p-id="60851" data-spm-anchor-id="a313x.search_index.0.i7.af3c3a811oNmsH" width="200" height="200"><path d="M934.4 716.8c38.4 0 64 25.6 64 64v147.2c0 38.4-25.6 64-64 64h-832c-38.4 0-64-25.6-64-64v-147.2c0-38.4 25.6-64 64-64h832z m-256 70.4c-38.4 0-64 32-64 70.4s25.6 70.4 64 70.4 64-32 64-70.4-32-70.4-64-70.4z m256-409.6c38.4 0 64 25.6 64 64v147.2c0 38.4-25.6 64-64 64h-832c-38.4 0-64-25.6-64-64V441.6c0-38.4 25.6-64 64-64h832z m-256 70.4c-38.4 0-64 32-64 70.4s25.6 70.4 64 70.4 64-32 64-70.4-32-70.4-64-70.4z m256-416c38.4 0 64 25.6 64 64v147.2c0 38.4-25.6 64-64 64h-832c-38.4 0-64-25.6-64-64V96c0-38.4 25.6-64 64-64h832z m-256 70.4c-38.4 0-64 32-64 70.4 0 38.4 25.6 70.4 64 70.4s64-32 64-70.4c0-38.4-32-70.4-64-70.4z" fill="#2c2c2c" p-id="60852" data-spm-anchor-id="a313x.search_index.0.i6.af3c3a811oNmsH" class="selected"></path><path d="M870.4 787.2c38.4 0 64 32 64 70.4 0 38.4-25.6 70.4-64 70.4s-64-32-64-70.4c0-38.4 25.6-70.4 64-70.4z m0-339.2c38.4 0 64 32 64 70.4 0 38.4-25.6 70.4-64 70.4s-64-32-64-70.4c0-44.8 25.6-70.4 64-70.4z m0-345.6c38.4 0 64 32 64 70.4s-25.6 70.4-64 70.4-64-32-64-70.4 25.6-70.4 64-70.4z" fill="#ffffff" p-id="60853" data-spm-anchor-id="a313x.search_index.0.i8.af3c3a811oNmsH" class=""></path></svg>
