<svg t="1701676111421" class="icon" viewBox="0 0 1214 1024" version="1.1" xmlns="http://www.w3.org/2000/svg" p-id="128336" width="200" height="200"><path d="M1062.964068 120.606373h-74.595797c-11.628475 0-21.556068 6.890305-21.556068 14.943458 0 8.053153 8.27878 14.943458 21.556068 14.943457h74.595797c11.628475 0 21.556068-6.890305 21.556068-14.943457 0-8.053153-9.944949-14.943458-21.556068-14.943458z" fill="#2c2c2c" p-id="128337" data-spm-anchor-id="a313x.search_index.0.i64.af3c3a811oNmsH" class="selected"></path><path d="M1172.809763 380.823864c0-3.505898 0-7.029153-1.874441-8.782101V53.786034c0-28.11661-26.433085-52.744678-56.632407-52.744678h-532.30644c-30.199322 0-56.632407 24.610712-56.632407 52.762034v151.204881c0 12.305356 11.316068 22.857763 24.541288 22.857763h570.055593v128.347119H868.90739c-13.207864 0-24.541288 10.552407-24.541288 22.857762 0 12.322712 11.333424 22.857763 24.541288 22.857763h252.945356v84.401898c0 12.305356 11.316068 22.857763 24.541288 22.857763 13.207864 0 24.541288-10.552407 24.541288-22.857763v-98.460203c1.874441-1.770305 1.874441-3.523254 1.874441-7.046509zM565.838102 176.943729V45.455186c0-3.54061 3.783593-5.328271 5.692745-5.328271h534.909831c3.783593 0 5.67539 3.557966 5.67539 5.328271v131.488543H565.838102z" fill="#2c2c2c" p-id="128338" data-spm-anchor-id="a313x.search_index.0.i62.af3c3a811oNmsH" class="selected"></path><path d="M1062.964068 299.94522c11.628475 0 21.556068-6.890305 21.556068-14.926101 0-8.070508-9.944949-14.960814-21.556068-14.960814h-74.595797c-11.628475 0-21.556068 6.890305-21.556068 14.943458 0 8.053153 9.944949 14.943458 21.556068 14.943457h74.595797z" fill="#2c2c2c" p-id="128339" data-spm-anchor-id="a313x.search_index.0.i63.af3c3a811oNmsH" class="selected"></path><path d="M735.440271 1005.741559c2.707525-2.447186 5.362983-4.963797 7.931661-7.54983 36.916068-36.968136 59.687051-87.578034 59.687051-143.255865 0-113.247458-93.982373-204.8-208.618305-204.8v52.067797c86.172203 0 156.550508 68.555932 156.550508 152.732203 0 73.693288-54.081085 135.844881-125.934644 149.816407l-302.132067-2.724881c-116.840136 0-35.336678-83.256407-35.336678-197.406373 0-114.13261 56.719186-241.021831 56.719186-255.288407 0-3.401763 0.069424-6.803525 0.208271-10.187932 84.731661 2.343051 154.085966 68.295593 158.598509 150.198237l1.995932 35.92678 33.496949-13.121085c16.609627-6.508475 35.996203-9.962305 55.816678-9.962305v-52.067797c-14.80461 0-29.505085 1.475254-43.615458 4.373695-19.785763-91.812881-100.942102-161.653153-198.56922-167.137627 28.533153-109.48122 130.742237-191.262373 251.261831-191.262373 138.743322 0 251.921356 106.999322 259.210847 238.991187 27.387661-10.70861 58.420068-16.054237 89.452475-16.054237 136.903593 0 250.081627 108.786983 250.081627 244.319457 0 133.762169-111.355661 244.336814-250.081627 244.336814l-216.723526-1.943865z" fill="#2c2c2c" p-id="128340" data-spm-anchor-id="a313x.search_index.0.i60.af3c3a811oNmsH" class="selected"></path><path d="M750.991186 854.95322c0 83.829153-70.013831 152.732203-156.550508 152.732204H133.241492C62.221017 1007.685424 4.686102 951.365424 4.686102 882.340881c0-68.903051 57.517559-125.552814 128.971932-126.646237 1.249627 0 2.915797 0.121492 7.063864 0.520678 5.848949 0.590102 8.625898 0.781017 12.530983 0.781017h29.574509l-3.748882-29.331525c-1.666169-13.016949-2.447186-21.799051-2.447186-29.331526 0-87.265627 73.519729-159.258034 163.215186-159.258034 86.849085 0 158.667932 66.872407 163.267255 150.267661l1.995932 35.92678 33.496949-13.121085c16.609627-6.508475 35.996203-9.962305 55.816678-9.962305 86.189559 0 156.567864 68.555932 156.567864 152.749559z" fill="#2c2c2c" p-id="128341" data-spm-anchor-id="a313x.search_index.0.i61.af3c3a811oNmsH" class="selected"></path></svg>
