<svg t="1701677124411" class="icon" viewBox="0 0 1339 1024" version="1.1" xmlns="http://www.w3.org/2000/svg" p-id="129747" width="200" height="200">
<path d="M1217.378462 0H121.698462C54.508308 0 0 57.265231 0 128v768C0 966.734769 54.508308 1024 121.698462 1024h1095.68c67.190154 0 121.698462-57.265231 121.698461-128v-768C1339.076923 57.265231 1284.568615 0 1217.378462 0z M1181.538462 464.344615h-393.846154v-62.227692h393.846154zM1181.538462 306.806154H708.923077v-62.227692h472.615385z M405.819077 176.206769c93.577846 0 169.511385 77.587692 169.511385 173.292308 0 95.625846-75.933538 173.134769-169.511385 173.134769-93.735385 0-169.590154-77.508923-169.590154-173.213538 0-95.625846 75.933538-173.292308 169.590154-173.292308zM669.538462 849.92H142.020923v-77.036308c0-106.338462 84.283077-192.512 188.416-192.512h150.685539C585.255385 580.371692 669.538462 666.545231 669.538462 772.883692v76.957539z" fill="currentColor" p-id="129748" data-spm-anchor-id="a313x.search_index.0.i69.af3c3a811oNmsH"></path>
</svg>
