<svg t="1701677211723" class="icon" viewBox="0 0 1024 1024" version="1.1" xmlns="http://www.w3.org/2000/svg" p-id="132281" width="200" height="200"><path d="M434.2272 839.5264l229.0688-665.1904c0.2048-0.512 0.3072-1.1264 0.4096-1.6384L434.2272 839.5264z" fill="currentColor" p-id="132282"></path><path d="M673.9968 138.496h-73.3184a8.8064 8.8064 0 0 0-8.192 5.8368L341.0944 873.984a8.704 8.704 0 0 0 8.2432 11.52h73.6256a8.8064 8.8064 0 0 0 8.2944-5.8368l0.7168-2.304 242.3296-704 7.9872-23.2448a8.8064 8.8064 0 0 0-8.3456-11.6224z m318.6176 362.0352a18.7392 18.7392 0 0 0-2.9184-2.9184l-237.824-186.0096a8.6528 8.6528 0 0 0-14.0288 6.8096v88.32c0 2.7136 1.2288 5.1712 3.3792 6.8096l124.928 97.792-124.928 97.6896a8.704 8.704 0 0 0-3.3792 6.8608v88.2688a8.704 8.704 0 0 0 14.0288 6.8608l237.824-186.0608a17.408 17.408 0 0 0 2.9184-24.4224zM272.0768 311.6032L34.304 497.6128a17.5104 17.5104 0 0 0 0 27.392l237.824 186.0096a8.704 8.704 0 0 0 14.0288-6.8608V615.936a8.448 8.448 0 0 0-3.3792-6.8608l-124.928-97.7408 124.928-97.7408a8.704 8.704 0 0 0 3.3792-6.8096V318.4128a8.6528 8.6528 0 0 0-14.0288-6.8608z" fill="currentColor" p-id="132283"></path></svg>
