<svg t="1701672270663" class="icon" viewBox="0 0 1024 1024" version="1.1" xmlns="http://www.w3.org/2000/svg" p-id="81739" width="200" height="200"><path d="M512.742 12.62c-9.036 0-35.558 9.422-35.558 9.422l-354.842 170.88s-16.64 8.73-20.659 13.772-8.013 21.146-8.013 21.146L3.405 623.386 0.69 635.316s-2.253 9.625 1.408 16.92l5.12 10.24 7.143 11.06 258.56 321.638s7.68 10.24 12.8 12.8c5.12 5.12 23.193 2.56 23.193 2.56h407.578s20.48 1.05 25.805-2.56c7.68-5.12 16.281-17.92 16.281-17.92l245.76-308.224s16.973-21.248 19.021-29.85c2.56-20.633-4.25-41.778-4.25-41.778L934.758 240.64s-4.428-25.293-9.344-32.026-26.188-17.612-26.188-17.612L550.656 23.168S522.445 12.8 512.742 12.621z" fill="#2c2c2c" p-id="81740" data-spm-anchor-id="a313x.search_index.0.i21.af3c3a811oNmsH" class="selected"></path><path d="M866.38 589.824c-18.713-4.275-22.143-0.82-47.308-5.555-8.909-1.664-22.477-5.12-32.666-17.92h-0.23a281.42 281.42 0 0 0 2.304-35.84 275.2 275.2 0 0 0-45.133-151.629l0.435-0.307a69.94 69.94 0 0 1 21.658-30.26c20.608-15.18 25.19-13.542 40.218-25.6 11.596-9.267 15.36-23.935 8.243-32.767s-22.195-8.525-33.792 0.742c-15.002 11.98-14.439 16.82-33.843 33.536-6.836 5.914-17.92 14.362-34.407 14.336l-0.358 0.333A275.686 275.686 0 0 0 537.6 255.078v-1.177a70.195 70.195 0 0 1-10.24-35.84c0.973-25.6 5.12-28.16 5.12-47.36 0-14.848-9.165-26.88-20.48-26.88s-20.48 12.032-20.48 26.88c0 19.2 4.147 21.785 5.12 47.36 0.358 9.037 0 23.04-10.24 35.84v1.177a275.891 275.891 0 0 0-175.386 85.402 69.811 69.811 0 0 1-32.69-14.029c-19.406-16.742-18.817-21.555-33.844-33.536-11.597-9.241-26.726-9.6-33.766-0.742s-3.354 23.577 8.243 32.947c15.001 11.98 19.61 10.24 40.217 25.6 7.04 5.12 17.28 13.798 21.248 28.826a275.072 275.072 0 0 0-44.902 151.04 279.04 279.04 0 0 0 2.56 37.53 69.555 69.555 0 0 1-30.874 16.383c-25.164 4.736-28.595 1.28-47.308 5.53-14.49 3.123-24.218 14.72-21.658 25.753s16.307 17.28 30.72 13.978c18.714-4.275 20.3-8.883 45.03-15.514 8.27-2.227 20.941-4.812 34.765 0.896a277.3 277.3 0 0 0 120.525 152.09l-1.382 2.56a70.246 70.246 0 0 1-6.324 36.736c-12.006 22.63-16.844 23.04-25.164 40.448-6.426 13.363-3.405 28.16 6.784 33.1s23.68-1.945 30.13-15.36c8.32-17.305 5.71-21.4 15.924-44.902 3.61-8.294 10.01-20.736 24.78-27.827l1.178-2.688a277.274 277.274 0 0 0 196.967-1.305 69.12 69.12 0 0 1 20.787 24.985c10.24 23.501 7.68 27.597 15.923 44.903 6.451 13.363 19.943 20.224 30.131 15.36s13.21-19.738 6.784-33.101c-8.345-17.306-13.184-17.92-25.164-40.448a53.146 53.146 0 0 1-7.168-31.847A277.248 277.248 0 0 0 774.86 616.09h0.128a69.94 69.94 0 0 1 37.222-2.023c24.73 6.656 26.317 11.264 45.03 15.514 14.465 3.302 28.16-2.944 30.72-13.978s-7.116-22.502-21.58-25.779z m-199.04-215.45c-39.014 29.696-82.815 59.444-105.855 69.3a102.758 102.758 0 0 0-11.93-5.812c-5.12-19.686-10.035-75.161-11.699-126.08a219.546 219.546 0 0 1 129.485 62.592zM528.206 496.64l20.94 25.062-6.425 32.128-29.107 14.823-29.773-13.491-7.987-31.668 19.789-26.01z m-41.651-185.011c-1.152 49.382-5.3 102.4-12.058 126.131a97.485 97.485 0 0 0-13.696 6.912c-20.762-10.24-65.638-40.243-104.832-69.58a219.443 219.443 0 0 1 130.586-63.36zM291.84 530.38a219.162 219.162 0 0 1 32.46-115.2c37.428 31.18 76.238 67.2 91.649 87.859a101.094 101.094 0 0 0-2.56 12.186c-20.992 9.907-72.704 26.316-120.167 38.681a224.896 224.896 0 0 1-1.382-23.526zM393.549 715.93a220.62 220.62 0 0 1-89.088-112.052c46.976-9.728 98.739-17.587 125.158-17.1a95.898 95.898 0 0 0 7.68 9.881c-2.534 17.741-22.579 71.168-43.75 119.27zM512 750.54a220.16 220.16 0 0 1-72.192-12.16c23.04-44.825 50.15-91.366 66.15-108.364a94.6 94.6 0 0 0 6.042 0.205q4.838 0 9.6-0.461c14.95 19.942 41.805 65.869 63.718 108.237A220.16 220.16 0 0 1 512 750.54z m119.117-35.046c-19.815-43.29-39.04-91.827-44.903-118.348a99.84 99.84 0 0 0 8.039-10.24c21.453-0.359 76.032 7.27 125.312 16.87a220.774 220.774 0 0 1-88.448 111.718z m99.84-161.664c-47.59-11.98-98.279-27.724-120.32-39.577a98.432 98.432 0 0 0-2.74-12.007c12.621-16.69 52.865-54.886 91.418-87.705a219.06 219.06 0 0 1 32.845 115.84 221.517 221.517 0 0 1-1.254 23.45z" fill="#F2F2F2" p-id="81741"></path></svg>
